<svg id="Layer_1" data-name="Layer 1" xmlns="http://www.w3.org/2000/svg" viewBox="0 0 233 233"><defs><style>.cls-1{fill-rule:evenodd;}</style></defs><title>logo_black</title><path class="cls-1" d="M128.86,35.84c-6.93-15-18.26-15-25.19,0l-72,155.72c-6.93,15,.9,27.23,17.4,27.23H183.5c16.5,0,24.33-12.25,17.4-27.23Z"/><rect x="82.77" y="10.77" width="67" height="74.17"/><rect x="71.1" y="4.05" width="90.33" height="13.45" rx="5"/><path class="cls-1" d="M207.45,198.12c-4.3,0-6-2.55-6-2.55a10,10,0,0,1-.09-1.09c-1.87-.2-3.77-.18-5.65-.42-3-.39-6-.91-9.07-1.15-5.06-.38-10.27-.9-15.34-.29v1.71l-.62.52c.06,4.2.27,8.4.49,12.6.21,3.87.14,7,2.68,9.74l.75-.81.4.34,15.71,13.39c28.71-17.06,42.54-48.68,42.54-48.68C220.46,195,212.29,198.15,207.45,198.12Z"/></svg>