<?xml version="1.0" encoding="UTF-8" standalone="no"?>
<svg
   xmlns:dc="http://purl.org/dc/elements/1.1/"
   xmlns:cc="http://creativecommons.org/ns#"
   xmlns:rdf="http://www.w3.org/1999/02/22-rdf-syntax-ns#"
   xmlns:svg="http://www.w3.org/2000/svg"
   xmlns="http://www.w3.org/2000/svg"
   id="Layer_1"
   data-name="Layer 1"
   viewBox="0 0 1351 233"
   version="1.1">
  <metadata
     id="metadata41">
    <rdf:RDF>
      <cc:Work
         rdf:about="">
        <dc:format>image/svg+xml</dc:format>
        <dc:type
           rdf:resource="http://purl.org/dc/dcmitype/StillImage" />
        <dc:title>ue4research_logo</dc:title>
      </cc:Work>
    </rdf:RDF>
  </metadata>
  <defs
     id="defs4">
    <style
       id="style2">.cls-1,.cls-2{fill:#fff;}.cls-1{fill-rule:evenodd;}</style>
  </defs>
  <title
     id="title6">ue4research_logo</title>
  <g
     aria-label="UE4Research"
     id="text870"
     style="font-style:normal;font-variant:normal;font-weight:normal;font-stretch:normal;font-size:180px;line-height:1.25;font-family:Bahnschrift;-inkscape-font-specification:Bahnschrift;letter-spacing:0px;word-spacing:0px;fill:#ffffff;fill-opacity:1;stroke:none;stroke-width:4;stroke-miterlimit:4;stroke-dasharray:none">
    <path
       d="m 316.16269,184.56538 q -14.15039,0 -24.25781,-5.53711 -10.01953,-5.625 -15.29297,-16.25976 -5.27344,-10.72266 -5.27344,-25.75195 V 55.454056 h 17.92969 v 82.177734 q 0,13.97461 7.03125,21.62109 7.03125,7.64649 19.86328,7.64649 12.91992,0 19.95117,-7.64649 7.11914,-7.64648 7.11914,-21.62109 V 55.454056 h 17.92969 v 81.562504 q 0,15.02929 -5.27344,25.75195 -5.27344,10.63476 -15.38086,16.25976 -10.10742,5.53711 -24.3457,5.53711 z"
       style="font-size:180px;fill:#ffffff;fill-opacity:1;stroke-width:4;stroke-miterlimit:4;stroke-dasharray:none"
       id="path838" />
    <path
       d="m 389.28769,55.454056 h 17.92969 V 183.24702 h -17.92969 z m 8.70117,110.742184 h 73.38867 v 17.05078 h -73.38867 z m 0,-54.93164 h 63.7207 v 17.05078 h -63.7207 z m 0,-55.810544 h 73.38867 v 17.050781 h -73.38867 z"
       style="font-size:180px;fill:#ffffff;fill-opacity:1;stroke-width:4;stroke-miterlimit:4;stroke-dasharray:none"
       id="path840" />
    <path
       d="m 492.47128,148.09077 42.89063,-92.548824 h 18.45703 L 511.983,147.03609 h 62.66602 v 16.61133 h -82.17774 z m 55.10742,-39.99023 h 17.49024 v 75.23438 H 547.5787 Z"
       style="font-style:normal;font-variant:normal;font-weight:normal;font-stretch:normal;font-family:Bahnschrift;-inkscape-font-specification:Bahnschrift;fill:#bebebe;fill-opacity:1;stroke:none;stroke-width:4;stroke-miterlimit:4;stroke-dasharray:none;stroke-opacity:1"
       id="path842" />
    <path
       d="m 607.08066,112.14351 h 43.59375 q 5.09765,0 9.05273,-2.46094 3.95508,-2.46094 6.06446,-6.94336 2.19726,-4.57031 2.19726,-10.458982 v 0 q 0,-5.888672 -2.19726,-10.371094 -2.10938,-4.570313 -6.06446,-7.03125 -3.86719,-2.460938 -9.05273,-2.460938 H 607.08066 V 55.366165 h 42.89062 q 11.07422,0 19.42383,4.570313 8.4375,4.570312 13.00781,13.007812 4.65821,8.34961 4.65821,19.335938 v 0 q 0,10.986332 -4.65821,19.423832 -4.6582,8.34961 -13.0957,12.91992 -8.34961,4.57031 -19.33594,4.57031 h -42.89062 z m -7.82227,-56.777345 h 17.92969 V 183.24702 h -17.92969 z m 42.62696,69.873045 17.84179,-4.04297 32.69531,62.05078 h -21.26953 z"
       style="font-size:180px;fill:#ffffff;fill-opacity:1;stroke-width:4;stroke-miterlimit:4;stroke-dasharray:none"
       id="path844" />
    <path
       d="m 748.67245,184.56538 q -12.65625,0 -21.62109,-4.74609 -8.96484,-4.74609 -13.71094,-13.88672 -4.6582,-9.22851 -4.6582,-22.23633 v -10.2832 q 0,-13.53516 4.48242,-23.11523 4.57031,-9.58008 13.1836,-14.589848 8.61328,-5.009766 20.74218,-5.009766 11.42578,0 19.51172,5.712891 8.08594,5.712893 12.30469,16.523433 4.30664,10.81055 4.30664,25.92774 v 5.97656 h -61.52344 v -14.41406 h 44.47266 v 0 q -0.79102,-11.16211 -5.80078,-17.31445 -4.92188,-6.24024 -13.27149,-6.24024 -10.19531,0 -15.82031,6.67969 -5.53711,6.67969 -5.53711,18.89648 v 11.60157 q 0,11.33789 5.97656,17.40234 5.97657,6.06445 16.96289,6.06445 5.44922,0 10.81055,-2.19726 5.36133,-2.19727 9.58008,-6.15235 v 0 l 11.77734,11.77735 v 0 q -6.76757,6.5039 -15.20507,10.10742 -8.4375,3.51562 -16.9629,3.51562 z"
       style="font-size:180px;fill:#ffffff;fill-opacity:1;stroke-width:4;stroke-miterlimit:4;stroke-dasharray:none"
       id="path846" />
    <path
       d="m 840.0787,184.56538 q -8.08593,0 -15.20507,-1.58203 -7.03125,-1.58203 -13.1836,-4.74609 -6.15234,-3.16406 -11.33789,-7.91016 v 0 l 10.63477,-13.0957 v 0 q 7.38281,5.625 14.67773,8.4375 7.29492,2.8125 14.41406,2.8125 10.63477,0 15.90821,-3.25195 5.36133,-3.33985 5.36133,-9.93164 0,-4.39454 -2.90039,-6.5918 -2.9004,-2.19727 -7.20704,-2.90039 -4.30664,-0.79102 -12.1289,-1.40625 -0.70313,0 -1.49414,0 -0.79102,-0.0879 -1.49414,-0.17578 -0.35157,0 -0.70313,0 -0.35156,-0.0879 -0.70312,-0.0879 -8.87696,-0.70313 -15.0293,-2.54883 -6.15234,-1.9336 -10.2832,-7.11914 -4.04297,-5.18555 -4.04297,-14.85352 0,-9.66797 3.95508,-16.08398 3.95507,-6.416018 11.77734,-9.58008 7.82227,-3.251954 19.59961,-3.251954 7.11914,0 13.53516,1.31836 6.5039,1.318359 12.39257,3.955078 5.88868,2.548828 11.33789,6.503906 v 0 l -10.81054,13.0957 v 0 q -6.85547,-4.39453 -13.53516,-6.59179 -6.5918,-2.19727 -12.91992,-2.19727 -9.14063,0 -13.71094,3.16406 -4.57031,3.07618 -4.57031,9.31641 0,3.69141 2.54883,5.53711 2.63672,1.8457 6.59179,2.46094 3.95508,0.61523 11.25,1.05468 0.52735,0.0879 1.05469,0.0879 0.61524,0 1.23047,0.0879 0.26367,0 0.52734,0 0.26368,0 0.52735,0.0879 9.58008,0.61523 16.25976,2.54882 6.76758,1.9336 11.33789,7.64649 4.57032,5.71289 4.57032,16.52344 0,9.84375 -4.21875,16.34765 -4.21875,6.41602 -12.74414,9.66797 -8.4375,3.25195 -21.26954,3.25195 z"
       style="font-size:180px;fill:#ffffff;fill-opacity:1;stroke-width:4;stroke-miterlimit:4;stroke-dasharray:none"
       id="path848" />
    <path
       d="m 938.5162,184.56538 q -12.65625,0 -21.62109,-4.74609 -8.96484,-4.74609 -13.71094,-13.88672 -4.6582,-9.22851 -4.6582,-22.23633 v -10.2832 q 0,-13.53516 4.48242,-23.11523 4.57031,-9.58008 13.1836,-14.589848 8.61328,-5.009766 20.74218,-5.009766 11.42578,0 19.51172,5.712891 8.08594,5.712893 12.30469,16.523433 4.30664,10.81055 4.30664,25.92774 v 5.97656 h -61.52344 v -14.41406 h 44.47266 v 0 q -0.79102,-11.16211 -5.80078,-17.31445 -4.92188,-6.24024 -13.27149,-6.24024 -10.19531,0 -15.82031,6.67969 -5.53711,6.67969 -5.53711,18.89648 v 11.60157 q 0,11.33789 5.97656,17.40234 5.97657,6.06445 16.96289,6.06445 5.44922,0 10.81055,-2.19726 5.36133,-2.19727 9.58008,-6.15235 v 0 l 11.77734,11.77735 v 0 q -6.76757,6.5039 -15.20507,10.10742 -8.4375,3.51562 -16.9629,3.51562 z"
       style="font-size:180px;fill:#ffffff;fill-opacity:1;stroke-width:4;stroke-miterlimit:4;stroke-dasharray:none"
       id="path850" />
    <path
       d="m 1049.1705,125.41499 q 0,-8.96484 -4.834,-13.88672 -4.7461,-5.00976 -13.5351,-5.00976 -5.4493,0 -10.7227,1.66992 -5.1855,1.66992 -9.2285,4.6582 l -13.09571,-8.96484 q 5.18551,-6.240234 13.62301,-9.667969 8.5254,-3.515625 18.8965,-3.515625 11.3379,0 19.4238,4.042969 8.086,3.955078 12.3047,11.601565 4.2188,7.55859 4.2188,18.28125 v 58.62304 h -17.0508 z m -22.3242,59.15039 q -16.875,0 -25.2246,-6.94336 -8.34964,-7.03125 -8.34964,-21.26953 0,-13.53515 7.64644,-20.30273 7.6465,-6.76758 23.1153,-6.76758 h 25.9277 l 1.2305,14.41406 h -27.0703 q -7.0313,0 -10.5469,3.16407 -3.4277,3.07617 -3.4277,9.49218 0,6.94336 4.5703,10.28321 4.6582,3.33984 14.0625,3.33984 10.2832,0 15.2929,-2.19727 5.0977,-2.19726 5.0977,-6.85546 l 1.8457,12.83203 q -2.373,3.6914 -5.8887,6.06445 -3.4277,2.37305 -7.998,3.51563 -4.5703,1.23046 -10.2832,1.23046 z"
       style="font-size:180px;fill:#ffffff;fill-opacity:1;stroke-width:4;stroke-miterlimit:4;stroke-dasharray:none"
       id="path852" />
    <path
       d="m 1093.4674,92.016556 h 17.9297 v 91.230464 h -17.9297 z m 50.1855,21.621094 q -2.373,-2.90039 -5.9765,-4.39453 -3.6036,-1.49414 -8.3496,-1.49414 -8.5254,0 -13.2715,4.74609 -4.6582,4.6582 -4.6582,13.00781 l -1.8457,-17.57812 q 4.2187,-8.173829 10.8984,-12.656251 6.6797,-4.570313 14.7656,-4.570313 6.2403,0 11.25,1.845704 5.0977,1.757812 8.877,5.273437 z"
       style="font-size:180px;fill:#ffffff;fill-opacity:1;stroke-width:4;stroke-miterlimit:4;stroke-dasharray:none"
       id="path854" />
    <path
       d="m 1205.3521,184.56538 q -12.4804,0 -21.3574,-4.6582 -8.789,-4.6582 -13.4472,-13.53516 -4.6582,-8.87695 -4.6582,-21.44531 v -15.02929 q 0,-12.39258 4.6582,-21.18165 4.6582,-8.789058 13.4472,-13.35937 8.877,-4.658204 21.3574,-4.658204 7.1192,0 13.3594,1.757813 6.3281,1.669922 11.3379,4.921875 5.0098,3.251956 8.3496,7.910156 v 0 l -12.9199,11.60156 v 0 q -3.8672,-4.39453 -9.0527,-6.76758 -5.1856,-2.37304 -10.8106,-2.37304 -10.3711,0 -16.084,5.80078 -5.7129,5.80078 -5.7129,16.34766 v 15.02929 q 0,10.81055 5.625,16.69922 5.7129,5.88867 16.1719,5.88867 5.7129,0 10.8985,-2.54883 5.1855,-2.54882 8.9648,-7.20703 v 0 l 12.9199,12.48047 v 0 q -3.4277,4.57031 -8.4375,7.82227 -5.0097,3.16406 -11.3379,4.83398 -6.2402,1.66992 -13.2715,1.66992 z"
       style="font-size:180px;fill:#ffffff;fill-opacity:1;stroke-width:4;stroke-miterlimit:4;stroke-dasharray:none"
       id="path856" />
    <path
       d="m 1258.1744,55.454056 h 17.9297 V 183.24702 h -17.9297 z m 55.3711,72.509764 q 0,-9.66797 -5.0098,-14.9414 -5.0097,-5.27344 -14.0625,-5.27344 -8.789,0 -13.623,4.57031 -4.7461,4.57031 -4.7461,12.91992 l -1.8457,-17.57812 q 4.2187,-8.08594 10.9863,-12.480472 6.8555,-4.482422 15.1172,-4.482422 14.8535,0 22.9395,9.755864 8.1738,9.66796 8.1738,27.42187 v 55.37109 h -17.9297 z"
       style="font-size:180px;fill:#ffffff;fill-opacity:1;stroke-width:4;stroke-miterlimit:4;stroke-dasharray:none"
       id="path858" />
  </g>
  <path
     class="cls-1"
     d="M109.86,35.84c-6.93-15-18.26-15-25.19,0l-72,155.72c-6.93,15,.9,27.23,17.4,27.23H164.5c16.5,0,24.33-12.25,17.4-27.23Z"
     id="path8" />
  <rect
     class="cls-2"
     x="63.77"
     y="10.77"
     width="67"
     height="74.17"
     id="rect10" />
  <rect
     class="cls-2"
     x="52.1"
     y="4.05"
     width="90.33"
     height="13.45"
     rx="5"
     id="rect12" />
  <path
     class="cls-1"
     d="M188.45,198.12c-4.3,0-6-2.55-6-2.55a10,10,0,0,1-.09-1.09c-1.87-.2-3.77-.18-5.65-.42-3-.39-6-.91-9.07-1.15-5.06-.38-10.27-.9-15.34-.29v1.71l-.62.52c.06,4.2.27,8.4.49,12.6.21,3.87.14,7,2.68,9.74l.75-.81.4.34,15.71,13.39c28.71-17.06,42.54-48.68,42.54-48.68C201.46,195,193.29,198.15,188.45,198.12Z"
     id="path14" />
</svg>
