<svg id="Layer_1" data-name="Layer 1" xmlns="http://www.w3.org/2000/svg" viewBox="0 0 1351 233"><defs><style>.cls-1,.cls-2{fill:#fff;}.cls-1{fill-rule:evenodd;}</style></defs><title>ue4research_logo_white</title><path class="cls-1" d="M109.86,35.84c-6.93-15-18.26-15-25.19,0l-72,155.72c-6.93,15,.9,27.23,17.4,27.23H164.5c16.5,0,24.33-12.25,17.4-27.23Z"/><rect class="cls-2" x="63.77" y="10.77" width="67" height="74.17"/><rect class="cls-2" x="52.1" y="4.05" width="90.33" height="13.45" rx="5"/><path class="cls-1" d="M188.45,198.12c-4.3,0-6-2.55-6-2.55a10,10,0,0,1-.09-1.09c-1.87-.2-3.77-.18-5.65-.42-3-.39-6-.91-9.07-1.15-5.06-.38-10.27-.9-15.34-.29v1.71l-.62.52c.06,4.2.27,8.4.49,12.6.21,3.87.14,7,2.68,9.74l.75-.81.4.34,15.71,13.39c28.71-17.06,42.54-48.68,42.54-48.68C201.46,195,193.29,198.15,188.45,198.12Z"/><path class="cls-2" d="M292,179a36.71,36.71,0,0,1-15.34-16.26Q271.43,152,271.42,137V55.45h17.93v82.17q0,14,7,21.62t19.86,7.65q12.93,0,20-7.65t7.07-21.62V55.45h17.93V137q0,15-5.27,25.71A36.64,36.64,0,0,1,340.59,179q-10.11,5.58-24.35,5.58T292,179Z"/><path class="cls-2" d="M391.13,55.45h17.92V183.24H391.13Zm8.7,0h73.38v17H399.83Zm0,55.81h63.72v17H399.83Zm0,54.93h73.38v17.05H399.83Z"/><path class="cls-2" d="M494.31,148.08,537.2,55.53h18.46L513.82,147h62.67v16.61H494.31Zm55.11-40h17.49v75.24H549.42Z"/><path class="cls-2" d="M601.1,55.36h12.65V183.24H601.1Zm7.82,62.05h43.59A24.63,24.63,0,0,0,665,114.29a21.25,21.25,0,0,0,8.35-8.83,29.24,29.24,0,0,0,3-13.19,28.28,28.28,0,0,0-2.95-13.18,21.15,21.15,0,0,0-8.35-8.84,24.85,24.85,0,0,0-12.61-3.12H608.92V55.36h42.89a40.07,40.07,0,0,1,19.47,4.57,32.06,32.06,0,0,1,13,13,39.56,39.56,0,0,1,4.62,19.38,39.51,39.51,0,0,1-4.62,19.38,31.91,31.91,0,0,1-13,13,40.2,40.2,0,0,1-19.42,4.57H608.92Zm41,7.82,11.68-4,32.7,62.05H679.14Z"/><path class="cls-2" d="M737.85,184.56l-9-4.79a32,32,0,0,1-13.67-14q-4.69-9.18-4.7-22.1V133.4q0-13.53,4.53-23.11A32.28,32.28,0,0,1,728.19,95.7q8.61-5,20.74-5,11.42,0,19.51,4.92A31.38,31.38,0,0,1,780.79,110q4.26,9.45,4.26,22.72v10.46H719.13V131.73h54.14v-.87q0-13.55-6.37-21t-18-7.42q-12.75,0-19.69,7.82t-6.94,22.15V144q0,13.71,7.38,21.22t20.83,7.52A31.67,31.67,0,0,0,763,170.14a34.62,34.62,0,0,0,11-7.47l8.62,8.26A48.68,48.68,0,0,1,767.56,181a43.56,43.56,0,0,1-17,3.56Z"/><path class="cls-2" d="M833.65,184.56l-6.94-1.45a58.83,58.83,0,0,1-13-4.27,47.14,47.14,0,0,1-10.68-6.76l7.29-8.88A67.42,67.42,0,0,0,825.83,171,46.65,46.65,0,0,0,841,173.75q13.1,0,20.26-4.49a14.13,14.13,0,0,0,7.16-12.65q0-6-3.47-9a18.77,18.77,0,0,0-8.75-4,128.47,128.47,0,0,0-14.68-1.76c-.58-.06-1.18-.1-1.8-.13s-1.21-.07-1.8-.13a5.49,5.49,0,0,1-.7-.05c-.24,0-.47,0-.71,0a83.5,83.5,0,0,1-15.11-2.64,20.44,20.44,0,0,1-10.15-6.59q-4.1-4.83-4.09-14a25.59,25.59,0,0,1,4.26-14.94,26.55,26.55,0,0,1,12.48-9.41q8.22-3.25,19.73-3.25a60.64,60.64,0,0,1,12,1.19A63,63,0,0,1,867.1,95.3a52.78,52.78,0,0,1,10.06,5.41l-7.29,8.7a60.89,60.89,0,0,0-13.54-5.84,46.8,46.8,0,0,0-13.18-2.07q-11.52,0-17.85,4.31A13.84,13.84,0,0,0,819,117.94q0,5.44,3.42,8.13a19.06,19.06,0,0,0,8.66,3.56,142,142,0,0,0,14.37,1.4,6.59,6.59,0,0,1,.75.05,6.51,6.51,0,0,0,.75,0h.52a1.64,1.64,0,0,1,.53.09,78.65,78.65,0,0,1,16.3,2.37,22,22,0,0,1,11.3,7.3q4.56,5.44,4.57,15.73a24.9,24.9,0,0,1-4.57,15.11Q871,178,862.22,181.26T841,184.56Z"/><path class="cls-2" d="M927.7,184.56l-9-4.79a32,32,0,0,1-13.66-14q-4.71-9.18-4.71-22.1V133.4q0-13.53,4.53-23.11A32.39,32.39,0,0,1,918,95.7q8.61-5,20.74-5,11.43,0,19.51,4.92A31.38,31.38,0,0,1,970.63,110q4.26,9.45,4.26,22.72v10.46H909V131.73h54.14v-.87q0-13.55-6.37-21t-18-7.42q-12.74,0-19.69,7.82t-6.94,22.15V144q0,13.71,7.38,21.22t20.83,7.52a31.72,31.72,0,0,0,12.53-2.64,34.73,34.73,0,0,0,11-7.47l8.61,8.26A48.56,48.56,0,0,1,957.4,181a43.53,43.53,0,0,1-17,3.56Z"/><path class="cls-2" d="M1003.9,177.17q-8.79-7.38-8.79-20.83,0-12.92,8-20t22.72-7.08h30.32l1.23,11.78H1026q-8.79,0-13.58,4t-4.79,11.29a13.86,13.86,0,0,0,6,12q6,4.26,17,4.26,11.78,0,18.28-2.37t6.5-6.68l1.85,11.95a24.31,24.31,0,0,1-7,4.88,39,39,0,0,1-9.76,3.12,62.08,62.08,0,0,1-11.82,1.06Q1012.69,184.56,1003.9,177.17Zm51.5-51.76q0-11.09-5.93-17.19t-16.83-6.1a39.72,39.72,0,0,0-12.75,2.1,36,36,0,0,0-11.07,6l-9.23-6.33a34.27,34.27,0,0,1,13.67-9.71,49.4,49.4,0,0,1,18.85-3.47q11.34,0,19.43,4a27.76,27.76,0,0,1,12.3,11.6q4.22,7.6,4.22,18.33v58.62H1055.4Z"/><path class="cls-2" d="M1095.3,92H1108v91.23H1095.3ZM1141.93,104a30,30,0,0,0-9.89-1.49q-11.41,0-17.75,6.11T1108,125.49l-1.84-17.57a35.36,35.36,0,0,1,13.13-12.7,36,36,0,0,1,17.8-4.53,33.53,33.53,0,0,1,11.3,1.8,25.3,25.3,0,0,1,8.83,5.32L1149,108.36A18,18,0,0,0,1141.93,104Z"/><path class="cls-2" d="M1194,184.56l-8.79-4.4A28.5,28.5,0,0,1,1172.08,167q-4.35-8.79-4.35-22.06v-15q0-13.09,4.39-21.8a28.64,28.64,0,0,1,13.14-13q8.74-4.35,21.93-4.35a53,53,0,0,1,13.62,1.63,36.5,36.5,0,0,1,11,4.83,33.35,33.35,0,0,1,8.44,8.13l-9.41,8.35a30.58,30.58,0,0,0-10.5-8.39,29.65,29.65,0,0,0-12.88-2.77q-13.62,0-20.34,6.81t-6.73,20.61v15q0,14,6.77,20.92t20.3,6.94a33.88,33.88,0,0,0,13.58-2.64,32.29,32.29,0,0,0,11-8l8.18,8.09a33.33,33.33,0,0,1-8.44,8,36.35,36.35,0,0,1-11,4.74,54.4,54.4,0,0,1-13.62,1.59Z"/><path class="cls-2" d="M1260,55.45h12.66V183.24H1260ZM1320.66,128q0-12.13-6.38-18.81t-18-6.68q-11.25,0-17.45,5.93t-6.19,16.83l-1.85-17.58a29.69,29.69,0,0,1,12.83-13,41,41,0,0,1,18.55-4q14.85,0,23,9.71t8.13,27.47v55.37h-12.65Z"/></svg>